<svg
  xmlns="http://www.w3.org/2000/svg"
  width="480"
  height="126"
  viewBox="0 0 480 126"
>
  <defs>
    <style>
      #nood {
        fill: #000000;
      }
      #pics {
        fill: #ffffff;
      }
      #rounded-rectangle {
        fill: #ff9100;
      }
    </style>
  </defs>
  <rect
    id="rounded-rectangle"
    width="230"
    height="126"
    rx="12"
    ry="12"
    transform="translate(250 0)"
  />
  <path
    id="nood"
    d="M24.016,94V49.188L51.719,94H65.641V25.281H52.75V71.172L24.625,25.281h-13.5V94H24.016ZM80.406,82.961a21.219,21.219,0,0,0,9.445,9.07,28.9,28.9,0,0,0,13.054,3.094,24.637,24.637,0,0,0,18.352-7.43q7.289-7.429,7.289-18.726,0-11.2-7.219-18.539t-18.516-7.336A27.2,27.2,0,0,0,89.57,46.328,22.2,22.2,0,0,0,80.406,55.7a26.932,26.932,0,0,0-3.234,12.7A30.221,30.221,0,0,0,80.406,82.961Zm13.781-25.2a11.493,11.493,0,0,1,17.32,0Q115,61.7,115,69.016q0,7.5-3.492,11.438a11.493,11.493,0,0,1-17.32,0q-3.516-3.937-3.516-11.344T94.188,57.766Zm44.86,25.2a21.218,21.218,0,0,0,9.445,9.07,28.908,28.908,0,0,0,13.055,3.094A24.633,24.633,0,0,0,179.9,87.7q7.289-7.429,7.29-18.726,0-11.2-7.219-18.539t-18.516-7.336a27.2,27.2,0,0,0-13.242,3.234,22.2,22.2,0,0,0-9.164,9.375,26.935,26.935,0,0,0-3.235,12.7A30.223,30.223,0,0,0,139.047,82.961Zm13.781-25.2a11.492,11.492,0,0,1,17.32,0q3.492,3.938,3.493,11.25,0,7.5-3.493,11.438a11.492,11.492,0,0,1-17.32,0q-3.516-3.937-3.516-11.344T152.828,57.766Zm90.328-32.484H229.984v24.75q-6.093-6.937-14.437-6.937A19.408,19.408,0,0,0,200.5,49.68q-5.953,6.586-5.953,19.242,0,12.375,6.117,19.289a18.96,18.96,0,0,0,14.7,6.914,18.47,18.47,0,0,0,8.368-2.086,19.77,19.77,0,0,0,7.195-6.352V94h12.234V25.281ZM211.164,56.9a9.9,9.9,0,0,1,7.852-3.727,9.793,9.793,0,0,1,7.922,3.773q3.093,3.774,3.093,12.352,0,7.688-3.187,11.555a9.7,9.7,0,0,1-7.735,3.867,9.952,9.952,0,0,1-8.906-5.156Q208,76,208,68.031,208,60.625,211.164,56.9Z"
    transform="translate(-11.125 0)"
  />
  <path
    id="pics"
    d="M287.516,108.938h13.172V83.859a25.185,25.185,0,0,0,7.054,5.625,16.781,16.781,0,0,0,7.477,1.641,18.982,18.982,0,0,0,14.765-6.914q6.093-6.914,6.094-19.383,0-12.14-6.047-18.938a18.98,18.98,0,0,0-14.719-6.8,17.828,17.828,0,0,0-9.046,2.344,18.385,18.385,0,0,0-6.469,6.094V40.219H287.516v68.719Zm16.218-55.711A10.106,10.106,0,0,1,311.75,49.5a9.715,9.715,0,0,1,7.781,3.8q3.141,3.8,3.141,11.625,0,8.391-3.047,12.07a9.517,9.517,0,0,1-7.641,3.68,10.181,10.181,0,0,1-8.109-4.008q-3.328-4.008-3.328-12.4Q300.547,56.953,303.734,53.227ZM359.7,33.469V21.281H346.531V33.469H359.7ZM359.7,90V40.219H346.531V90H359.7Zm49.2-46.992q-5.367-3.913-14.46-3.914-11.111,0-17.626,6.867t-6.515,19.2q0,12.188,6.492,19.078T394.2,91.125q9.609,0,15.328-4.547t7.735-13.453l-12.938-2.2q-0.984,5.2-3.375,7.336a8.876,8.876,0,0,1-6.141,2.133,9.772,9.772,0,0,1-7.992-3.656q-2.978-3.656-2.976-12.516,0-7.968,2.929-11.367a9.844,9.844,0,0,1,7.852-3.4,8.988,8.988,0,0,1,6.023,1.969,9.425,9.425,0,0,1,2.977,5.859l12.984-2.344Q414.265,46.922,408.9,43.008ZM429.711,87q5.929,4.125,16.1,4.125,11.2,0,16.922-4.922a15.035,15.035,0,0,0,5.719-11.766q0-6.281-4.125-9.8-4.173-3.468-14.695-5.859t-12.305-3.7a2.91,2.91,0,0,1-1.312-2.391,3.119,3.119,0,0,1,1.5-2.672q2.25-1.452,7.453-1.453a11.055,11.055,0,0,1,6.351,1.547,7.686,7.686,0,0,1,3.024,4.453l12.422-2.3a17.02,17.02,0,0,0-6.844-9.844q-4.97-3.328-15.188-3.328-10.734,0-15.843,4.406a13.806,13.806,0,0,0-5.11,10.875,12.824,12.824,0,0,0,5.907,11.2q4.264,2.907,20.2,6.422,3.42,0.8,4.406,1.734a3.458,3.458,0,0,1,.937,2.484,4.184,4.184,0,0,1-1.734,3.516q-2.578,1.875-7.688,1.875-4.639,0-7.218-1.992a9.681,9.681,0,0,1-3.422-5.836L421.953,75.8A19,19,0,0,0,429.711,87Z"
    transform="translate(-10 0)"
  />
</svg>
